<?xml version="1.0" encoding="UTF-8" standalone="no"?>
<svg
   xmlns:dc="http://purl.org/dc/elements/1.1/"
   xmlns:cc="http://creativecommons.org/ns#"
   xmlns:rdf="http://www.w3.org/1999/02/22-rdf-syntax-ns#"
   xmlns:svg="http://www.w3.org/2000/svg"
   xmlns="http://www.w3.org/2000/svg"
   xmlns:sodipodi="http://sodipodi.sourceforge.net/DTD/sodipodi-0.dtd"
   xmlns:inkscape="http://www.inkscape.org/namespaces/inkscape"
   width="210mm"
   height="297mm"
   viewBox="0 0 210 297"
   version="1.1"
   id="svg8"
   inkscape:version="1.0.2 (e86c870879, 2021-01-15)"
   sodipodi:docname="hanger_june_second.svg">
  <defs
     id="defs2">
    <inkscape:perspective
       sodipodi:type="inkscape:persp3d"
       inkscape:vp_x="10.734475 : 151.45954 : 1"
       inkscape:vp_y="0 : 793.58096 : 0"
       inkscape:vp_z="189.58625 : 153.36312 : 1"
       inkscape:persp3d-origin="100.0903 : 114.08087 : 1"
       id="perspective1021" />
  </defs>
  <sodipodi:namedview
     id="base"
     pagecolor="#ffffff"
     bordercolor="#666666"
     borderopacity="1.0"
     inkscape:pageopacity="0.0"
     inkscape:pageshadow="2"
     inkscape:zoom="1.0076756"
     inkscape:cx="118.70267"
     inkscape:cy="749.60265"
     inkscape:document-units="mm"
     inkscape:current-layer="layer1"
     inkscape:document-rotation="0"
     showgrid="false"
     inkscape:snap-global="false"
     inkscape:window-width="1366"
     inkscape:window-height="672"
     inkscape:window-x="0"
     inkscape:window-y="27"
     inkscape:window-maximized="1" />
  <metadata
     id="metadata5">
    <rdf:RDF>
      <cc:Work
         rdf:about="">
        <dc:format>image/svg+xml</dc:format>
        <dc:type
           rdf:resource="http://purl.org/dc/dcmitype/StillImage" />
        <dc:title></dc:title>
      </cc:Work>
    </rdf:RDF>
  </metadata>
  <g
     inkscape:label="Capa 1"
     inkscape:groupmode="layer"
     id="layer1">
    <g
       sodipodi:type="inkscape:box3d"
       id="g1023"
       style="fill:#000000;fill-rule:nonzero;stroke:#000000;stroke-width:1.70079"
       inkscape:perspectiveID="#perspective1021"
       inkscape:corner0="26.182586 : 0.12344275 : 0 : 1"
       inkscape:corner7="-0.49516608 : 0.02636452 : 0.25 : 1">
      <path
         sodipodi:type="inkscape:box3dside"
         id="path1035"
         style="fill:#e9e9ff;fill-rule:evenodd;stroke:none;stroke-width:1.39879;stroke-linejoin:round"
         inkscape:box3dsidetype="11"
         d="M 15.621684,143.31468 188.34808,64.649771 V 166.71121 L 15.621684,146.123 Z"
         points="188.34808,64.649771 188.34808,166.71121 15.621684,146.123 15.621684,143.31468 " />
      <path
         sodipodi:type="inkscape:box3dside"
         id="path1025"
         style="fill:#353564;fill-rule:evenodd;stroke:none;stroke-width:1.39879;stroke-linejoin:round"
         inkscape:box3dsidetype="6"
         d="m 14.021721,143.31172 v 2.83414 l 1.599963,-0.0229 v -2.80832 z"
         points="14.021721,146.14586 15.621684,146.123 15.621684,143.31468 14.021721,143.31172 " />
      <path
         sodipodi:type="inkscape:box3dside"
         id="path1033"
         style="fill:#afafde;fill-rule:evenodd;stroke:none;stroke-width:1.39879;stroke-linejoin:round"
         inkscape:box3dsidetype="13"
         d="M 14.021721,146.14586 187.73492,178.13789 188.34808,166.71121 15.621684,146.123 Z"
         points="187.73492,178.13789 188.34808,166.71121 15.621684,146.123 14.021721,146.14586 " />
      <path
         sodipodi:type="inkscape:box3dside"
         id="path1027"
         style="fill:#4d4d9f;fill-rule:evenodd;stroke:none;stroke-width:1.39879;stroke-linejoin:round"
         inkscape:box3dsidetype="5"
         d="M 14.021721,143.31172 187.73492,25.534375 188.34808,64.649771 15.621684,143.31468 Z"
         points="187.73492,25.534375 188.34808,64.649771 15.621684,143.31468 14.021721,143.31172 " />
      <path
         sodipodi:type="inkscape:box3dside"
         id="path1031"
         style="fill:#d7d7ff;fill-rule:evenodd;stroke:none;stroke-width:1.39879;stroke-linejoin:round"
         inkscape:box3dsidetype="14"
         d="M 187.73492,25.534375 V 178.13789 l 0.61316,-11.42668 V 64.649771 Z"
         points="187.73492,178.13789 188.34808,166.71121 188.34808,64.649771 187.73492,25.534375 " />
      <path
         sodipodi:type="inkscape:box3dside"
         id="path1029"
         style="fill:#8686bf;fill-rule:evenodd;stroke:none;stroke-width:1.39879;stroke-linejoin:round"
         inkscape:box3dsidetype="3"
         d="M 14.021721,143.31172 187.73492,25.534375 V 178.13789 L 14.021721,146.14586 Z"
         points="187.73492,25.534375 187.73492,178.13789 14.021721,146.14586 14.021721,143.31172 " />
    </g>
    <g
       sodipodi:type="inkscape:box3d"
       id="g1037"
       style="fill:#000000;fill-rule:nonzero;stroke:#000000;stroke-width:1.70079"
       inkscape:perspectiveID="#perspective1021"
       inkscape:corner0="4.1306682 : -0.058316561 : 0 : 1"
       inkscape:corner7="0.5873773 : -0.14351058 : 0.68831959 : 1">
      <path
         sodipodi:type="inkscape:box3dside"
         id="path1049"
         style="fill:#e9e9ff;fill-rule:evenodd;stroke:none;stroke-width:1.39879;stroke-linejoin:round"
         inkscape:box3dsidetype="11"
         d="M 47.246497,159.69195 104.09621,181.726 v 29.70885 L 47.246497,171.31052 Z"
         points="104.09621,181.726 104.09621,211.43485 47.246497,171.31052 47.246497,159.69195 " />
      <path
         sodipodi:type="inkscape:box3dside"
         id="path1039"
         style="fill:#353564;fill-rule:evenodd;stroke:none;stroke-width:1.39879;stroke-linejoin:round"
         inkscape:box3dsidetype="6"
         d="m 28.150497,161.84586 v 13.1773 l 19.096,-3.71264 v -11.61857 z"
         points="28.150497,175.02316 47.246497,171.31052 47.246497,159.69195 28.150497,161.84586 " />
      <path
         sodipodi:type="inkscape:box3dside"
         id="path1047"
         style="fill:#afafde;fill-rule:evenodd;stroke:none;stroke-width:1.39879;stroke-linejoin:round"
         inkscape:box3dsidetype="13"
         d="m 28.150497,175.02316 38.875464,65.81029 37.070249,-29.3986 -56.849713,-40.12433 z"
         points="67.025961,240.83345 104.09621,211.43485 47.246497,171.31052 28.150497,175.02316 " />
      <path
         sodipodi:type="inkscape:box3dside"
         id="path1041"
         style="fill:#4d4d9f;fill-rule:evenodd;stroke:none;stroke-width:1.39879;stroke-linejoin:round"
         inkscape:box3dsidetype="5"
         d="M 28.150497,161.84586 67.025961,198.24223 104.09621,181.726 47.246497,159.69195 Z"
         points="67.025961,198.24223 104.09621,181.726 47.246497,159.69195 28.150497,161.84586 " />
      <path
         sodipodi:type="inkscape:box3dside"
         id="path1045"
         style="fill:#d7d7ff;fill-rule:evenodd;stroke:none;stroke-width:1.39879;stroke-linejoin:round"
         inkscape:box3dsidetype="14"
         d="m 67.025961,198.24223 v 42.59122 l 37.070249,-29.3986 V 181.726 Z"
         points="67.025961,240.83345 104.09621,211.43485 104.09621,181.726 67.025961,198.24223 " />
      <path
         sodipodi:type="inkscape:box3dside"
         id="path1043"
         style="fill:#8686bf;fill-rule:evenodd;stroke:none;stroke-width:1.39879;stroke-linejoin:round"
         inkscape:box3dsidetype="3"
         d="m 28.150497,161.84586 38.875464,36.39637 v 42.59122 L 28.150497,175.02316 Z"
         points="67.025961,198.24223 67.025961,240.83345 28.150497,175.02316 28.150497,161.84586 " />
    </g>
    <g
       sodipodi:type="inkscape:box3d"
       id="g1065"
       style="fill:#000000;fill-rule:nonzero;stroke:#000000;stroke-width:1.70079"
       inkscape:perspectiveID="#perspective1021"
       inkscape:corner0="22.627178 : 0.18638367 : 0 : 1"
       inkscape:corner7="-0.089323725 : 0.11423275 : 4.8338112 : 1">
      <path
         sodipodi:type="inkscape:box3dside"
         id="path1077"
         style="fill:#e9e9ff;fill-rule:evenodd;stroke:none;stroke-width:1.39879;stroke-linejoin:round"
         inkscape:box3dsidetype="11"
         d="M 44.250231,141.33353 176.78785,124.69728 v 9.9674 l -132.537619,8.68065 z"
         points="176.78785,124.69728 176.78785,134.66468 44.250231,143.34533 44.250231,141.33353 " />
      <path
         sodipodi:type="inkscape:box3dside"
         id="path1067"
         style="fill:#353564;fill-rule:evenodd;stroke:none;stroke-width:1.39879;stroke-linejoin:round"
         inkscape:box3dsidetype="6"
         d="m 14.516384,140.8623 v 2.42338 l 29.733847,0.0596 v -2.0118 z"
         points="14.516384,143.28568 44.250231,143.34533 44.250231,141.33353 14.516384,140.8623 " />
      <path
         sodipodi:type="inkscape:box3dside"
         id="path1069"
         style="fill:#4d4d9f;fill-rule:evenodd;stroke:none;stroke-width:1.39879;stroke-linejoin:round"
         inkscape:box3dsidetype="5"
         d="M 14.516384,140.8623 108.85477,24.167083 176.78785,124.69728 44.250231,141.33353 Z"
         points="108.85477,24.167083 176.78785,124.69728 44.250231,141.33353 14.516384,140.8623 " />
      <path
         sodipodi:type="inkscape:box3dside"
         id="path1075"
         style="fill:#afafde;fill-rule:evenodd;stroke:none;stroke-width:1.39879;stroke-linejoin:round"
         inkscape:box3dsidetype="13"
         d="M 14.516384,143.28568 108.85477,87.040792 176.78785,134.66468 44.250231,143.34533 Z"
         points="108.85477,87.040792 176.78785,134.66468 44.250231,143.34533 14.516384,143.28568 " />
      <path
         sodipodi:type="inkscape:box3dside"
         id="path1073"
         style="fill:#d7d7ff;fill-rule:evenodd;stroke:none;stroke-width:1.39879;stroke-linejoin:round"
         inkscape:box3dsidetype="14"
         d="m 108.85477,24.167083 v 62.873709 l 67.93308,47.623888 v -9.9674 z"
         points="108.85477,87.040792 176.78785,134.66468 176.78785,124.69728 108.85477,24.167083 " />
      <path
         sodipodi:type="inkscape:box3dside"
         id="path1071"
         style="fill:#8686bf;fill-rule:evenodd;stroke:none;stroke-width:1.39879;stroke-linejoin:round"
         inkscape:box3dsidetype="3"
         d="M 14.516384,140.8623 108.85477,24.167083 V 87.040792 L 14.516384,143.28568 Z"
         points="108.85477,24.167083 108.85477,87.040792 14.516384,143.28568 14.516384,140.8623 " />
    </g>
    <g
       sodipodi:type="inkscape:box3d"
       id="g1079"
       style="fill:#000000;fill-rule:nonzero;stroke:#000000;stroke-width:1.70079"
       inkscape:perspectiveID="#perspective1021"
       inkscape:corner0="-0.22860644 : -0.0078243915 : 0 : 1"
       inkscape:corner7="-0.4885994 : -0.024419879 : 0.47648406 : 1">
      <path
         sodipodi:type="inkscape:box3dside"
         id="path1091"
         style="fill:#e9e9ff;fill-rule:evenodd;stroke:none;stroke-width:1.39879;stroke-linejoin:round"
         inkscape:box3dsidetype="11"
         d="m 150.63269,179.74328 36.81862,9.00155 v 13.33138 l -36.81862,-11.77912 z"
         points="187.45131,188.74483 187.45131,202.07621 150.63269,190.29709 150.63269,179.74328 " />
      <path
         sodipodi:type="inkscape:box3dside"
         id="path1081"
         style="fill:#353564;fill-rule:evenodd;stroke:none;stroke-width:1.39879;stroke-linejoin:round"
         inkscape:box3dsidetype="6"
         d="m 126.57136,202.04594 v 17.07281 l 24.06133,-28.82166 v -10.55381 z"
         points="126.57136,219.11875 150.63269,190.29709 150.63269,179.74328 126.57136,202.04594 " />
      <path
         sodipodi:type="inkscape:box3dside"
         id="path1089"
         style="fill:#afafde;fill-rule:evenodd;stroke:none;stroke-width:1.39879;stroke-linejoin:round"
         inkscape:box3dsidetype="13"
         d="m 126.57136,219.11875 58.89077,37.40676 1.98918,-54.4493 -36.81862,-11.77912 z"
         points="185.46213,256.52551 187.45131,202.07621 150.63269,190.29709 126.57136,219.11875 " />
      <path
         sodipodi:type="inkscape:box3dside"
         id="path1083"
         style="fill:#4d4d9f;fill-rule:evenodd;stroke:none;stroke-width:1.39879;stroke-linejoin:round"
         inkscape:box3dsidetype="5"
         d="m 126.57136,202.04594 58.89077,28.72703 1.98918,-42.02814 -36.81862,-9.00155 z"
         points="185.46213,230.77297 187.45131,188.74483 150.63269,179.74328 126.57136,202.04594 " />
      <path
         sodipodi:type="inkscape:box3dside"
         id="path1087"
         style="fill:#d7d7ff;fill-rule:evenodd;stroke:none;stroke-width:1.39879;stroke-linejoin:round"
         inkscape:box3dsidetype="14"
         d="m 185.46213,230.77297 v 25.75254 l 1.98918,-54.4493 v -13.33138 z"
         points="185.46213,256.52551 187.45131,202.07621 187.45131,188.74483 185.46213,230.77297 " />
      <path
         sodipodi:type="inkscape:box3dside"
         id="path1085"
         style="fill:#8686bf;fill-rule:evenodd;stroke:none;stroke-width:1.39879;stroke-linejoin:round"
         inkscape:box3dsidetype="3"
         d="m 126.57136,202.04594 58.89077,28.72703 v 25.75254 l -58.89077,-37.40676 z"
         points="185.46213,230.77297 185.46213,256.52551 126.57136,219.11875 126.57136,202.04594 " />
    </g>
    <g
       sodipodi:type="inkscape:box3d"
       id="g1107"
       style="fill:#000000;fill-rule:nonzero;stroke:#000000;stroke-width:1.70079"
       inkscape:perspectiveID="#perspective1021"
       inkscape:corner0="-0.14802326 : 0.036119057 : 0 : 1"
       inkscape:corner7="-0.26936401 : -0.09048087 : 0.82762279 : 1">
      <path
         sodipodi:type="inkscape:box3dside"
         id="path1119"
         style="fill:#e9e9ff;fill-rule:evenodd;stroke:none;stroke-width:1.39879;stroke-linejoin:round"
         inkscape:box3dsidetype="11"
         d="m 152.06438,149.79138 11.00528,0.33101 v 64.47407 l -11.00528,-4.98887 z"
         points="163.06966,150.12239 163.06966,214.59646 152.06438,209.60759 152.06438,149.79138 " />
      <path
         sodipodi:type="inkscape:box3dside"
         id="path1109"
         style="fill:#353564;fill-rule:evenodd;stroke:none;stroke-width:1.39879;stroke-linejoin:round"
         inkscape:box3dsidetype="6"
         d="m 115.61507,155.76994 v 117.92257 l 36.44931,-64.08492 v -59.81621 z"
         points="115.61507,273.69251 152.06438,209.60759 152.06438,149.79138 115.61507,155.76994 " />
      <path
         sodipodi:type="inkscape:box3dside"
         id="path1117"
         style="fill:#afafde;fill-rule:evenodd;stroke:none;stroke-width:1.39879;stroke-linejoin:round"
         inkscape:box3dsidetype="13"
         d="m 115.61507,273.69251 17.4181,21.28292 30.03649,-80.37897 -11.00528,-4.98887 z"
         points="133.03317,294.97543 163.06966,214.59646 152.06438,209.60759 115.61507,273.69251 " />
      <path
         sodipodi:type="inkscape:box3dside"
         id="path1111"
         style="fill:#4d4d9f;fill-rule:evenodd;stroke:none;stroke-width:1.39879;stroke-linejoin:round"
         inkscape:box3dsidetype="5"
         d="m 115.61507,155.76994 17.4181,1.69886 30.03649,-7.34641 -11.00528,-0.33101 z"
         points="133.03317,157.4688 163.06966,150.12239 152.06438,149.79138 115.61507,155.76994 " />
      <path
         sodipodi:type="inkscape:box3dside"
         id="path1115"
         style="fill:#d7d7ff;fill-rule:evenodd;stroke:none;stroke-width:1.39879;stroke-linejoin:round"
         inkscape:box3dsidetype="14"
         d="m 133.03317,157.4688 v 137.50663 l 30.03649,-80.37897 v -64.47407 z"
         points="133.03317,294.97543 163.06966,214.59646 163.06966,150.12239 133.03317,157.4688 " />
      <path
         sodipodi:type="inkscape:box3dside"
         id="path1113"
         style="fill:#8686bf;fill-rule:evenodd;stroke:none;stroke-width:1.39879;stroke-linejoin:round"
         inkscape:box3dsidetype="3"
         d="m 115.61507,155.76994 17.4181,1.69886 v 137.50663 l -17.4181,-21.28292 z"
         points="133.03317,157.4688 133.03317,294.97543 115.61507,273.69251 115.61507,155.76994 " />
    </g>
    <path
       style="fill:#f9f9f9;fill-rule:nonzero;stroke:#000000;stroke-width:4.85939"
       d="m 55.714286,536.1839 c 0,-2.26 15.516061,-23.50792 25.714285,-35.21352 8.982323,-10.30997 48.031449,-58.38734 59.384799,-73.11468 2.69551,-3.49655 8.5229,-10.56798 12.94976,-15.71429 4.42686,-5.14629 13.42686,-16.38243 20,-24.96914 6.57314,-8.58675 13.87973,-17.81601 16.23687,-20.50951 8.45885,-9.66588 37.11248,-44.85823 47.91554,-58.8498 4.53392,-5.87209 12.65836,-15.84599 21.45138,-26.33457 6.27255,-7.4821 29.04244,-36.14416 36.25478,-45.63644 3.87765,-5.10344 10.02134,-12.70057 13.65263,-16.8825 11.39014,-13.11731 37.47401,-45.08321 48.69438,-59.67517 2.68863,-3.49656 8.5104,-10.56798 12.93729,-15.71429 4.42686,-5.14631 13.42686,-16.42835 20,-25.07121 6.57311,-8.64286 13.55829,-17.41326 15.52257,-19.489794 C 409.28903,95.985062 410,118.50404 410,212.1305 v 116.89702 l -10,5.38536 c -5.5,2.96194 -10,6.45457 -10,7.76139 0,1.30682 -1.091,1.70176 -2.42446,0.87765 -1.33343,-0.82412 -5.48183,1.35 -9.21865,4.83138 -3.7368,3.48137 -7.46723,5.99782 -8.28983,5.5921 -0.8226,-0.40572 -4.06706,1.46406 -7.20992,4.15505 -3.14285,2.691 -5.99403,4.30867 -6.33594,3.59481 -0.34191,-0.71385 -3.23477,0.93951 -6.42857,3.67413 -3.1938,2.73462 -5.80692,4.39137 -5.80692,3.68167 0,-1.8488 -115.36168,67.56009 -117.46229,70.67275 -0.96141,1.4246 -2.52687,2.15894 -3.4788,1.63186 -0.95193,-0.52709 -4.66533,1.55431 -8.25199,4.62531 -3.58666,3.071 -7.16406,5.31046 -7.94977,4.97663 -0.78572,-0.33386 -3.67857,1.31949 -6.42857,3.67411 -2.75,2.35463 -5,3.70046 -5,2.99078 0,-1.8488 -115.36169,67.56008 -117.4623,70.67274 -0.961405,1.4246 -2.582019,2.45431 -3.601365,2.28826 -1.019345,-0.166 -5.697027,1.68571 -10.394847,4.11505 -4.697821,2.42935 -8.541492,3.30923 -8.541492,1.95535 z"
       id="path1131"
       transform="scale(0.26458333)" />
    <path
       style="fill:#f9f9f9;fill-rule:nonzero;stroke:#000000;stroke-width:4.85939"
       d="M 644.28571,491.23367 C 632.5,482.74787 575.65731,442.66107 517.96862,402.15187 L 413.08009,328.49878 412.96862,212.92735 c -0.0613,-63.56428 0.9685,-114.349997 2.28847,-112.85714 1.31996,1.49286 58.5947,85.99913 127.27718,187.79171 l 124.87724,185.07743 -0.84861,16.86149 -0.84861,16.86151 z"
       id="path1133"
       transform="scale(0.26458333)" />
    <path
       style="fill:#f9f9f9;fill-rule:nonzero;stroke:#000000;stroke-width:4.85939"
       d="m 642.85714,931.12362 c -28.28571,-18.10275 -52.40482,-33.88955 -53.59802,-35.08178 -1.1932,-1.19222 3.19779,-16.57494 9.75776,-34.1838 10.71447,-28.76076 12.52345,-31.82688 17.79115,-30.15497 3.22517,1.02362 22.94132,10.79654 43.81367,21.71758 l 37.94973,19.85645 v 45.46798 c 0,25.00739 -0.96429,45.42853 -2.14286,45.38031 -1.17857,-0.0482 -25.28571,-14.89902 -53.57143,-33.00177 z"
       id="path1135"
       transform="scale(0.26458333)" />
    <path
       style="fill:#f9f9f9;fill-rule:nonzero;stroke:#000000;stroke-width:4.85939"
       d="m 179.25346,782.07217 -72.1106,-122.1409 v -22.75169 -22.7517 l 13.57143,12.81717 c 15.3478,14.49482 52.37524,48.96842 82.14285,76.47732 11,10.16534 26.75,24.86557 35,32.66718 l 15,14.18474 v 76.81939 c 0,42.25066 -0.33594,76.81939 -0.74654,76.81939 -0.41059,0 -33.19631,-54.96341 -72.85714,-122.1409 z"
       id="path1137"
       transform="scale(0.26458333)" />
    <path
       style="fill:#f9f9f9;fill-rule:nonzero;stroke:#000000;stroke-width:1.68783"
       d="m 471.32187,591.74954 c -14.80821,-1.50256 -27.41051,-2.89854 -28.0051,-3.10219 -0.5946,-0.20364 28.49096,-5.19156 64.63457,-11.08426 62.01034,-10.10989 66.47104,-10.7065 79.11282,-10.58117 28.33721,0.28093 28.96486,-0.0154 -30.93827,14.60822 -29.65075,7.23838 -54.8036,13.10009 -55.89522,13.02601 -1.09162,-0.0741 -14.10058,-1.36405 -28.9088,-2.86661 z"
       id="path1145"
       transform="scale(0.26458333)" />
    <path
       style="fill:#000000;fill-rule:nonzero;stroke:#000000;stroke-width:1.68783"
       d="m 239.20907,733.67747 c -8.20085,-7.75106 -30.52947,-28.59501 -49.61914,-46.31989 -57.1116,-53.0285 -79.9735,-74.67331 -79.43789,-75.20891 0.27885,-0.27885 15.72352,-2.2243 34.32149,-4.32321 l 33.8145,-3.81621 106.36365,41.22137 c 58.50002,22.67175 106.48946,41.34717 106.64321,41.50092 0.30738,0.30738 -135.87874,61.17986 -136.67898,61.09277 -0.2729,-0.0297 -7.20597,-6.39577 -15.40684,-14.14684 z"
       id="path1147"
       transform="scale(0.26458333)" />
    <path
       style="fill:#000080;fill-rule:nonzero;stroke:#000000;stroke-width:1.68783"
       d="m 112.25137,541.3137 -55.531037,-0.49619 8.392857,-3.65402 c 4.616071,-2.00971 9.395001,-3.9369 10.619844,-4.28264 1.224842,-0.34573 2.875681,-1.2773 3.668528,-2.07015 4.871572,-4.87158 114.552238,-70.87239 117.776288,-70.87239 0.59555,0 2.71009,-1.2878 4.69897,-2.86179 1.98887,-1.57399 5.28405,-3.55796 7.32259,-4.40882 2.03856,-0.85087 5.787,-3.13564 8.32987,-5.07727 2.54288,-1.94164 5.24869,-3.53024 6.01291,-3.53024 0.76423,0 7.10188,-3.76046 14.08368,-8.35657 16.45018,-10.82914 89.85258,-54.89037 102.21902,-61.35897 5.24897,-2.74562 10.8833,-5.99389 12.52073,-7.21838 1.63744,-1.22449 4.09358,-2.56109 5.45811,-2.97022 1.36453,-0.40913 4.04396,-1.97205 5.9543,-3.47316 1.91033,-1.50112 5.15239,-3.43012 7.20457,-4.28668 2.05217,-0.85656 6.22389,-3.58791 9.2705,-6.06965 3.20444,-2.61032 6.56063,-4.51227 7.96235,-4.51227 1.42295,0 3.78837,-1.3653 5.73088,-3.30781 1.81928,-1.81929 6.64584,-5.02616 10.72567,-7.12637 l 7.41788,-3.81857 2.88651,2.01268 c 45.35536,31.625 208.88056,146.80919 243.32395,171.393 3.73522,2.66598 4.01769,3.11971 2.33071,3.74377 -1.05579,0.39056 -6.09445,0.95597 -11.19701,1.25646 -5.10257,0.30049 -12.84997,0.78393 -17.21646,1.07431 -4.36648,0.29038 -11.28835,0.73607 -15.38193,0.99041 -4.09358,0.25435 -10.79216,0.68956 -14.88574,0.96715 -11.57617,0.78498 -21.60725,1.45062 -30.26768,2.00848 -21.89262,1.41021 -26.35066,1.70213 -46.1458,3.02182 -6.96367,0.46423 -10.84751,0.71732 -29.77149,1.93997 -4.09358,0.26449 -11.01545,0.7177 -15.38193,1.00712 -18.55887,1.23017 -23.21409,1.53341 -30.26768,1.97167 -4.09358,0.25435 -11.01545,0.70303 -15.38193,0.99708 -21.95943,1.47881 -36.17022,2.41431 -45.15342,2.97245 -4.09358,0.25435 -10.90372,0.69629 -15.13363,0.9821 -12.32382,0.83271 -22.01875,1.47604 -30.26768,2.00849 -4.23015,0.27303 -11.04046,0.71283 -15.13404,0.97731 -4.09358,0.26449 -11.01545,0.7455 -15.38194,1.06894 -4.36648,0.32344 -8.60892,0.59075 -9.42763,0.594 -0.81872,0.003 -7.29402,0.40834 -14.38955,0.90016 -7.09554,0.49183 -16.47356,1.11766 -20.84004,1.39077 -4.36649,0.27309 -11.51165,0.73335 -15.87813,1.02278 -18.55887,1.23016 -23.21409,1.53341 -30.26768,1.97166 -4.09358,0.25435 -11.01545,0.70346 -15.38193,0.99804 -17.99202,1.21383 -21.2252,1.42729 -29.64208,1.95708 -4.84112,0.30472 -9.08356,0.65902 -9.42764,0.78735 -0.34407,0.12831 -25.61456,0.01 -56.15664,-0.26289 z"
       id="path1149"
       transform="scale(0.26458333)" />
    <path
       style="fill:#ffff00;fill-rule:nonzero;stroke:#000000;stroke-width:1.68783"
       d="m 253.62353,906.67802 c 0,-1.05941 0.44657,-2.2022 0.99238,-2.53953 0.64787,-0.4004 0.99239,-27.48311 0.99239,-78.01125 V 748.7293 l 3.72143,-1.54968 c 10.8515,-4.51879 46.52689,-20.30791 86.87928,-38.45079 24.99601,-11.23848 45.64263,-20.43361 45.88138,-20.43361 0.23876,0 0.55309,24.94098 0.69851,55.4244 l 0.26442,55.42439 -2.48096,1.84719 c -1.36452,1.01595 -32.49572,25.6445 -69.18044,54.7301 -36.68471,29.0856 -66.93998,52.88291 -67.23393,52.88291 -0.29395,0 -0.53446,-0.86678 -0.53446,-1.92619 z"
       id="path1151"
       transform="scale(0.26458333)" />
    <path
       style="fill:#008000;fill-rule:nonzero;stroke:#000000;stroke-width:1.68783"
       d="m 469.74757,1073.7515 -32.46787,-39.6109 -0.0327,-222.58677 -0.0327,-222.58682 3.22524,0.53188 c 5.81063,0.95825 18.75009,2.42033 40.4396,4.56942 11.73493,1.16275 21.44872,2.22357 21.58621,2.35738 0.13749,0.13381 0.13749,116.4993 0,258.58997 l -0.24998,258.34664 z"
       id="path1153"
       transform="scale(0.26458333)" />
    <path
       style="fill:#800080;fill-rule:nonzero;stroke:#000000;stroke-width:1.68783"
       d="m 663.47764,664.42039 c -23.19695,-4.30686 -43.18106,-8.07388 -44.40913,-8.37114 l -2.23286,-0.54047 v -44.02653 -44.02652 l -6.22461,-0.66659 c -3.42353,-0.36664 -12.68991,-0.81215 -20.59195,-0.99002 -16.17417,-0.36411 -25.48751,0.90666 -106.16274,14.48542 -23.19695,3.90437 -43.2927,7.14048 -44.65723,7.19134 l -2.48096,0.0925 -0.49619,17.40965 -0.49619,17.40965 -191.28179,-35.22864 -191.281791,-35.22863 -1.67e-4,-5.00583 -1.67e-4,-5.00581 59.920535,0.2632 59.92053,0.2632 75.78799,-4.96458 c 41.68339,-2.73052 140.76425,-9.21957 220.17969,-14.42011 79.41543,-5.20055 154.49685,-10.11874 166.84759,-10.92931 12.35074,-0.81056 23.84886,-1.75234 25.55139,-2.09285 1.90188,-0.38038 3.67971,-0.13427 4.61052,0.63825 0.83327,0.69154 1.69538,1.07699 1.91581,0.85657 0.22044,-0.22043 0.89369,-9.20208 1.49614,-19.95922 l 1.09534,-19.55842 -31.78779,-47.07427 c -17.48328,-25.89084 -31.78779,-47.33975 -31.78779,-47.66423 0,-0.32449 22.99847,-0.58998 51.10772,-0.58998 h 51.10771 v 147.86505 c 0,140.19389 -0.0901,147.86073 -1.73667,147.78201 -0.95517,-0.0457 -20.71599,-3.60682 -43.91294,-7.91368 z"
       id="path1155"
       transform="scale(0.26458333)" />
    <path
       style="fill:#ff6600;fill-rule:nonzero;stroke:#000000;stroke-width:1.68783"
       d="m 675.84555,857.96999 c -38.44123,-20.16474 -57.08104,-29.11423 -60.63842,-29.11423 -1.76894,0 -3.46927,-0.40938 -3.77851,-0.90974 -0.30923,-0.50035 0.78084,-4.39767 2.42239,-8.66071 l 2.98464,-7.75098 v -59.8137 c 0,-33.80602 0.37997,-59.8137 0.87386,-59.8137 1.22418,0 89.54915,21.6155 89.9293,22.00812 0.49787,0.51421 -6.96621,155.4824 -7.5153,156.03149 -0.2737,0.27371 -11.19878,-5.11574 -24.27796,-11.97655 z"
       id="path1157"
       transform="scale(0.26458333)" />
    <path
       style="fill:#ff00ff;fill-rule:nonzero;stroke:#000000;stroke-width:1.68783"
       d="m 558.28506,306.05933 c -25.926,-38.5164 -47.55251,-70.65939 -48.05891,-71.42885 -0.85824,-1.30408 1.20051,-4.58728 2.87649,-4.58728 0.33493,0 1.14833,-0.45405 1.80756,-1.00899 0.65922,-0.55494 6.33417,-4.42967 12.61099,-8.6105 6.27683,-4.18084 11.56126,-7.96924 11.7432,-8.41866 0.18194,-0.44942 0.96344,-0.81712 1.73667,-0.81712 0.77323,0 1.40588,-0.44658 1.40588,-0.99239 0,-0.54581 0.63264,-0.99238 1.40587,-0.99238 0.77323,0 1.55474,-0.33493 1.73667,-0.74429 0.18194,-0.40935 5.68966,-4.27207 12.23939,-8.5838 6.54973,-4.31173 12.05745,-8.21924 12.23939,-8.68335 0.18194,-0.46411 0.759,-0.84383 1.28236,-0.84383 0.52337,0 1.49094,-0.45405 2.15017,-1.00899 0.65922,-0.55494 6.33417,-4.42967 12.61099,-8.61051 6.27682,-4.18084 11.56126,-7.96923 11.7432,-8.41865 0.18194,-0.44942 0.96344,-0.81713 1.73667,-0.81713 0.77323,0 1.40587,-0.44657 1.40587,-0.99238 0,-0.54581 0.63265,-0.99238 1.40588,-0.99238 0.77323,0 1.55473,-0.33493 1.73667,-0.74429 0.18194,-0.40936 5.68966,-4.27207 12.23939,-8.5838 6.54972,-4.31173 12.05745,-8.21924 12.23938,-8.68335 0.18195,-0.46411 0.75901,-0.84384 1.28237,-0.84384 0.52336,0 1.49094,-0.45404 2.15017,-1.00898 0.65922,-0.55495 6.33417,-4.42968 12.61099,-8.61051 6.27682,-4.18084 11.56126,-7.96923 11.74319,-8.41865 0.18195,-0.44942 0.96345,-0.81713 1.73667,-0.81713 0.77324,0 1.40588,-0.44657 1.40588,-0.99238 0,-0.54581 0.63265,-0.99239 1.40588,-0.99239 0.77323,0 1.55473,-0.33493 1.73667,-0.74428 0.18193,-0.40936 5.68966,-4.27207 12.23939,-8.58381 6.54972,-4.31173 12.05745,-8.21924 12.23938,-8.68335 0.18194,-0.46411 0.759,-0.84383 1.28237,-0.84383 0.52336,0 1.49093,-0.45059 2.15016,-1.0013 2.12752,-1.77733 17.45562,-11.899677 18.01947,-11.899677 0.30021,0 0.54582,62.296837 0.54582,138.437407 v 138.4374 l -20.09575,0.002 c -11.05266,9.1e-4 -34.38606,0.26147 -51.852,0.57902 l -31.75625,0.57737 z"
       id="path1159"
       transform="scale(0.26458333)" />
    <path
       style="fill:#0088aa;fill-rule:nonzero;stroke:#000000;stroke-width:1.68783"
       d="m 102.78134,539.79458 -39.199121,-0.57366 6.842531,-2.7825 c 3.763393,-1.53038 11.801694,-6.03826 17.862891,-10.01751 21.099249,-13.85194 95.936349,-58.70679 107.592989,-64.48764 2.55773,-1.26845 7.32985,-3.92603 10.60472,-5.90572 3.27486,-1.97969 8.63373,-5.20463 11.90859,-7.16653 3.27486,-1.9619 14.43917,-8.80732 24.80957,-15.21205 26.65573,-16.46249 71.74641,-43.49918 88.23555,-52.90665 33.57771,-19.15694 44.56112,-25.67274 50.62463,-30.03254 2.68868,-1.93322 5.53012,-3.51494 6.3143,-3.51494 0.78419,0 3.96071,-1.90552 7.05892,-4.2345 3.09821,-2.32897 8.07288,-5.51187 11.05481,-7.07311 l 5.42168,-2.83861 67.30151,47.27128 c 108.89439,76.48532 180.27614,126.99644 179.94208,127.33049 -0.28191,0.28191 -51.65596,3.74975 -158.92632,10.72782 -98.91812,6.43475 -239.43682,15.69299 -280.34815,18.47107 -51.09607,3.46969 -62.19411,3.74883 -117.10118,2.9453 z"
       id="path1161"
       transform="scale(0.26458333)" />
  </g>
</svg>
